<?xml version="1.0" standalone="no"?>
<!DOCTYPE svg PUBLIC "-//W3C//DTD SVG 20010904//EN"
 "http://www.w3.org/TR/2001/REC-SVG-20010904/DTD/svg10.dtd">
<svg version="1.0" xmlns="http://www.w3.org/2000/svg"
 width="3588.000000pt" height="2416.000000pt" viewBox="0 0 3588.000000 2416.000000"
 preserveAspectRatio="xMidYMid meet">

<g transform="translate(0.000000,2416.000000) scale(0.100000,-0.100000)"
fill="#000000" stroke="none">
<path d="M32353 22483 l-23 -4 0 -1114 c0 -1006 2 -1113 16 -1119 20 -8 2248
-8 2268 0 14 6 16 113 16 1119 l0 1113 -31 6 c-35 7 -2211 6 -2246 -1z"/>
<path d="M25687 22303 c-4 -3 -7 -505 -7 -1114 0 -1000 2 -1107 16 -1113 24
-9 2237 -7 2252 2 10 7 12 237 10 1118 l-3 1109 -1131 3 c-622 1 -1134 -1
-1137 -5z"/>
<path d="M28516 20064 c-3 -9 -6 -662 -6 -1453 0 -1104 3 -1440 12 -1449 9 -9
389 -12 1649 -12 901 0 1644 3 1653 6 15 6 16 144 16 1465 l0 1459 -1659 0
c-1503 0 -1659 -1 -1665 -16z"/>
<path d="M1960 10620 l0 -8740 14933 2 14932 3 0 7335 0 7335 -1325 0 -1325 0
-5 -5775 -5 -5775 -12282 -3 -12283 -2 0 5740 0 5740 8439 0 c7686 0 8439 1
8445 16 8 20 8 2828 0 2848 -6 15 -875 16 -9765 16 l-9759 0 0 -8740z"/>
<path d="M23005 19348 c-3 -7 -4 -663 -3 -1458 l3 -1445 1658 -3 1657 -2 0
1460 0 1460 -1655 0 c-1315 0 -1657 -3 -1660 -12z"/>
<path d="M22286 14054 c-3 -9 -6 -330 -6 -715 l0 -699 2598 2 2597 3 3 690 c1
380 0 700 -3 713 l-5 22 -2589 0 c-2351 0 -2589 -1 -2595 -16z"/>
<path d="M14767 13873 c-4 -3 -7 -312 -7 -685 l0 -678 -594 0 c-532 0 -594 -2
-600 -16 -3 -9 -6 -1176 -6 -2595 l0 -2579 598 2 597 3 3 1298 2 1297 1980 0
1980 0 2 -1297 3 -1298 598 -3 597 -2 0 2582 c0 1421 -4 2589 -8 2595 -6 10
-138 13 -583 15 l-574 3 -3 670 c-2 616 -3 671 -19 683 -13 9 -427 12 -1988
12 -1085 0 -1975 -3 -1978 -7z m3937 -1429 c14 -6 16 -63 16 -548 0 -323 -4
-547 -10 -556 -8 -13 -238 -15 -1970 -15 -1732 0 -1962 2 -1970 15 -16 24 -13
1097 3 1103 18 8 3912 8 3931 1z"/>
<path d="M5953 13526 l-23 -24 0 -3161 c0 -3123 0 -3160 19 -3171 14 -7 216
-9 613 -8 l593 3 3 1377 2 1378 678 2 677 3 3 697 2 698 -670 2 c-583 3 -672
5 -680 18 -6 9 -10 431 -10 1093 0 724 -3 1085 -10 1098 -10 18 -27 19 -593
19 l-582 0 -22 -24z"/>
<path d="M11193 13526 l-23 -24 0 -1065 c0 -668 -4 -1075 -10 -1091 l-10 -26
-654 0 c-360 0 -661 -3 -670 -6 -14 -6 -16 -76 -16 -690 0 -665 1 -684 19
-694 13 -6 244 -10 680 -10 l661 0 0 -1370 c0 -1347 0 -1369 19 -1380 14 -7
216 -9 613 -8 l593 3 3 3173 c1 2176 -1 3179 -8 3193 -10 18 -27 19 -593 19
l-582 0 -22 -24z"/>
<path d="M21050 12611 c-16 -31 -14 -3842 3 -3864 11 -16 62 -17 617 -19 l605
-3 5 -695 c3 -382 6 -696 8 -697 1 -2 1167 -3 2591 -3 2351 0 2589 1 2595 16
9 24 7 1377 -2 1391 -7 10 -542 13 -2603 15 l-2594 3 -3 580 c-1 319 0 590 3
602 l5 23 1958 2 1957 3 0 695 0 695 -1954 3 c-1549 2 -1956 5 -1963 15 -4 6
-8 282 -8 612 l0 600 -24 23 -24 22 -581 0 c-563 0 -581 -1 -591 -19z"/>
</g>
</svg>
